{
  "accessors": [
    {
      "bufferView": 2,
      "componentType": 5126,
      "count": 65532,
      "max": [
        19.12819480895996,
        23.159080505371094,
        18.845584869384766
      ],
      "min": [
        -25.138263702392578,
        -20.879024505615234,
        0.7004809379577637
      ],
      "type": "VEC3"
    },
    {
      "bufferView": 2,
      "byteOffset": 786384,
      "componentType": 5126,
      "count": 65532,
      "max": [
        0.9999909400939941,
        0.9999999403953552,
        1.0
      ],
      "min": [
        -0.999992847442627,
        -0.9999938607215881,
        -1.0
      ],
      "type": "VEC3"
    },
    {
      "bufferView": 1,
      "componentType": 5126,
      "count": 65532,
      "max": [
        0.9998149871826172,
        0.8441159725189209
      ],
      "min": [
        0.00012199999764561653,
        0.00039400000241585076
      ],
      "type": "VEC2"
    },
    {
      "bufferView": 0,
      "componentType": 5125,
      "count": 256275,
      "type": "SCALAR"
    },
    {
      "bufferView": 2,
      "byteOffset": 1572768,
      "componentType": 5126,
      "count": 65532,
      "max": [
        19.12819480895996,
        15.183539390563965,
        18.845584869384766
      ],
      "min": [
        -19.4993953704834,
        -20.87902069091797,
        0.7005400657653809
      ],
      "type": "VEC3"
    },
    {
      "bufferView": 2,
      "byteOffset": 2359152,
      "componentType": 5126,
      "count": 65532,
      "max": [
        0.9999776482582092,
        0.9999917149543762,
        1.0
      ],
      "min": [
        -0.9999251961708069,
        -0.9999955892562866,
        -1.0
      ],
      "type": "VEC3"
    },
    {
      "bufferView": 1,
      "byteOffset": 524256,
      "componentType": 5126,
      "count": 65532,
      "max": [
        0.9996809959411621,
        0.8441159725189209
      ],
      "min": [
        0.00012199999764561653,
        0.00042100000428035855
      ],
      "type": "VEC2"
    },
    {
      "bufferView": 0,
      "byteOffset": 1025100,
      "componentType": 5125,
      "count": 281805,
      "type": "SCALAR"
    },
    {
      "bufferView": 2,
      "byteOffset": 3145536,
      "componentType": 5126,
      "count": 65532,
      "max": [
        16.662519454956055,
        15.559660911560059,
        18.844562530517578
      ],
      "min": [
        -19.212656021118164,
        -20.87902069091797,
        0.7005400657653809
      ],
      "type": "VEC3"
    },
    {
      "bufferView": 2,
      "byteOffset": 3931920,
      "componentType": 5126,
      "count": 65532,
      "max": [
        0.9999997615814209,
        0.9999999403953552,
        1.0
      ],
      "min": [
        -0.9999614357948303,
        -0.9999882578849792,
        -1.0
      ],
      "type": "VEC3"
    },
    {
      "bufferView": 1,
      "byteOffset": 1048512,
      "componentType": 5126,
      "count": 65532,
      "max": [
        0.9998130202293396,
        0.8441159725189209
      ],
      "min": [
        0.00012199999764561653,
        0.0003699999942909926
      ],
      "type": "VEC2"
    },
    {
      "bufferView": 0,
      "byteOffset": 2152320,
      "componentType": 5125,
      "count": 264708,
      "type": "SCALAR"
    },
    {
      "bufferView": 2,
      "byteOffset": 4718304,
      "componentType": 5126,
      "count": 65532,
      "max": [
        16.42871856689453,
        15.113701820373535,
        18.84486961364746
      ],
      "min": [
        -19.63836097717285,
        -16.804445266723633,
        0.7005400657653809
      ],
      "type": "VEC3"
    },
    {
      "bufferView": 2,
      "byteOffset": 5504688,
      "componentType": 5126,
      "count": 65532,
      "max": [
        0.9999997615814209,
        0.9999803900718689,
        1.0
      ],
      "min": [
        -0.9999675154685974,
        -0.9999716877937317,
        -1.0
      ],
      "type": "VEC3"
    },
    {
      "bufferView": 1,
      "byteOffset": 1572768,
      "componentType": 5126,
      "count": 65532,
      "max": [
        0.9985949993133545,
        0.8443599939346313
      ],
      "min": [
        0.00012199999764561653,
        0.04211999848484993
      ],
      "type": "VEC2"
    },
    {
      "bufferView": 0,
      "byteOffset": 3211152,
      "componentType": 5125,
      "count": 250200,
      "type": "SCALAR"
    },
    {
      "bufferView": 2,
      "byteOffset": 6291072,
      "componentType": 5126,
      "count": 65532,
      "max": [
        14.42741870880127,
        15.72851848602295,
        16.736434936523438
      ],
      "min": [
        -17.649322509765625,
        -16.647050857543945,
        1.1374263763427734
      ],
      "type": "VEC3"
    },
    {
      "bufferView": 2,
      "byteOffset": 7077456,
      "componentType": 5126,
      "count": 65532,
      "max": [
        0.9999957084655762,
        0.9999991655349731,
        1.0
      ],
      "min": [
        -0.9999954700469971,
        -0.9999983906745911,
        -1.0
      ],
      "type": "VEC3"
    },
    {
      "bufferView": 1,
      "byteOffset": 2097024,
      "componentType": 5126,
      "count": 65532,
      "max": [
        0.9997460246086121,
        0.8443599939346313
      ],
      "min": [
        0.00012199999764561653,
        0.0011810000287368894
      ],
      "type": "VEC2"
    },
    {
      "bufferView": 0,
      "byteOffset": 4211952,
      "componentType": 5125,
      "count": 243117,
      "type": "SCALAR"
    },
    {
      "bufferView": 2,
      "byteOffset": 7863840,
      "componentType": 5126,
      "count": 65532,
      "max": [
        14.60938549041748,
        15.660326957702637,
        18.844562530517578
      ],
      "min": [
        -20.21525001525879,
        -16.85270118713379,
        1.213569164276123
      ],
      "type": "VEC3"
    },
    {
      "bufferView": 2,
      "byteOffset": 8650224,
      "componentType": 5126,
      "count": 65532,
      "max": [
        0.9999910593032837,
        0.999972403049469,
        1.0
      ],
      "min": [
        -0.9999993443489075,
        -0.9999850392341614,
        -1.0
      ],
      "type": "VEC3"
    },
    {
      "bufferView": 1,
      "byteOffset": 2621280,
      "componentType": 5126,
      "count": 65532,
      "max": [
        0.9997860193252563,
        0.8443599939346313
      ],
      "min": [
        0.00012199999764561653,
        0.0003910000086762011
      ],
      "type": "VEC2"
    },
    {
      "bufferView": 0,
      "byteOffset": 5184420,
      "componentType": 5125,
      "count": 239625,
      "type": "SCALAR"
    },
    {
      "bufferView": 2,
      "byteOffset": 9436608,
      "componentType": 5126,
      "count": 65532,
      "max": [
        18.298921585083008,
        15.289801597595215,
        14.047220230102539
      ],
      "min": [
        -18.50605583190918,
        -15.66997241973877,
        0.7005400657653809
      ],
      "type": "VEC3"
    },
    {
      "bufferView": 2,
      "byteOffset": 10222992,
      "componentType": 5126,
      "count": 65532,
      "max": [
        0.9999628663063049,
        0.9999951124191284,
        1.0
      ],
      "min": [
        -0.9999997019767761,
        -0.9999459981918335,
        -1.0
      ],
      "type": "VEC3"
    },
    {
      "bufferView": 1,
      "byteOffset": 3145536,
      "componentType": 5126,
      "count": 65532,
      "max": [
        0.9997689723968506,
        0.8443599939346313
      ],
      "min": [
        0.00012199999764561653,
        0.00203300011344254
      ],
      "type": "VEC2"
    },
    {
      "bufferView": 0,
      "byteOffset": 6142920,
      "componentType": 5125,
      "count": 231222,
      "type": "SCALAR"
    },
    {
      "bufferView": 2,
      "byteOffset": 11009376,
      "componentType": 5126,
      "count": 65534,
      "max": [
        16.229198455810547,
        15.286654472351074,
        15.806339263916016
      ],
      "min": [
        -19.059612274169922,
        -16.843311309814453,
        1.2121796607971191
      ],
      "type": "VEC3"
    },
    {
      "bufferView": 2,
      "byteOffset": 11795784,
      "componentType": 5126,
      "count": 65534,
      "max": [
        0.9999915957450867,
        0.9999951124191284,
        1.0
      ],
      "min": [
        -0.9999929070472717,
        -0.9999957084655762,
        -1.0
      ],
      "type": "VEC3"
    },
    {
      "bufferView": 1,
      "byteOffset": 3669792,
      "componentType": 5126,
      "count": 65534,
      "max": [
        0.9997950196266174,
        0.8443599939346313
      ],
      "min": [
        0.00012199999764561653,
        0.0008099999977275729
      ],
      "type": "VEC2"
    },
    {
      "bufferView": 0,
      "byteOffset": 7067808,
      "componentType": 5125,
      "count": 198336,
      "type": "SCALAR"
    },
    {
      "bufferView": 2,
      "byteOffset": 12582192,
      "componentType": 5126,
      "count": 65532,
      "max": [
        16.695220947265625,
        15.144034385681152,
        14.045652389526367
      ],
      "min": [
        -15.995890617370605,
        -17.211938858032227,
        0.7005400657653809
      ],
      "type": "VEC3"
    },
    {
      "bufferView": 2,
      "byteOffset": 13368576,
      "componentType": 5126,
      "count": 65532,
      "max": [
        0.9999887943267822,
        0.9999985694885254,
        1.0
      ],
      "min": [
        -0.9999650120735168,
        -0.9999918341636658,
        -1.0
      ],
      "type": "VEC3"
    },
    {
      "bufferView": 1,
      "byteOffset": 4194064,
      "componentType": 5126,
      "count": 65532,
      "max": [
        0.9998149871826172,
        0.8443599939346313
      ],
      "min": [
        0.00012199999764561653,
        0.01439599972218275
      ],
      "type": "VEC2"
    },
    {
      "bufferView": 0,
      "byteOffset": 7861152,
      "componentType": 5125,
      "count": 201477,
      "type": "SCALAR"
    },
    {
      "bufferView": 2,
      "byteOffset": 14154960,
      "componentType": 5126,
      "count": 65532,
      "max": [
        16.684675216674805,
        15.741957664489746,
        14.052958488464355
      ],
      "min": [
        -19.160266876220703,
        -15.580010414123535,
        1.1457695960998535
      ],
      "type": "VEC3"
    },
    {
      "bufferView": 2,
      "byteOffset": 14941344,
      "componentType": 5126,
      "count": 65532,
      "max": [
        0.9999769926071167,
        0.9999837279319763,
        1.0
      ],
      "min": [
        -0.9999983310699463,
        -0.9999220967292786,
        -0.9999998807907104
      ],
      "type": "VEC3"
    },
    {
      "bufferView": 1,
      "byteOffset": 4718320,
      "componentType": 5126,
      "count": 65532,
      "max": [
        0.999783992767334,
        0.8443599939346313
      ],
      "min": [
        0.00012199999764561653,
        0.015081999823451042
      ],
      "type": "VEC2"
    },
    {
      "bufferView": 0,
      "byteOffset": 8667060,
      "componentType": 5125,
      "count": 185364,
      "type": "SCALAR"
    },
    {
      "bufferView": 2,
      "byteOffset": 15727728,
      "componentType": 5126,
      "count": 65534,
      "max": [
        16.695220947265625,
        15.735100746154785,
        14.011666297912598
      ],
      "min": [
        -16.053266525268555,
        -16.79781150817871,
        1.2207565307617188
      ],
      "type": "VEC3"
    },
    {
      "bufferView": 2,
      "byteOffset": 16514136,
      "componentType": 5126,
      "count": 65534,
      "max": [
        0.9998971819877625,
        0.9999842643737793,
        1.0
      ],
      "min": [
        -0.9999998807907104,
        -0.9999944567680359,
        -1.0
      ],
      "type": "VEC3"
    },
    {
      "bufferView": 1,
      "byteOffset": 5242576,
      "componentType": 5126,
      "count": 65534,
      "max": [
        0.9997439980506897,
        0.8443599939346313
      ],
      "min": [
        0.00012199999764561653,
        0.004397999960929155
      ],
      "type": "VEC2"
    },
    {
      "bufferView": 0,
      "byteOffset": 9408516,
      "componentType": 5125,
      "count": 189711,
      "type": "SCALAR"
    },
    {
      "bufferView": 2,
      "byteOffset": 17300544,
      "componentType": 5126,
      "count": 65534,
      "max": [
        18.735326766967773,
        11.22983169555664,
        14.02346420288086
      ],
      "min": [
        -10.173230171203613,
        -16.675207138061523,
        1.2274856567382813
      ],
      "type": "VEC3"
    },
    {
      "bufferView": 2,
      "byteOffset": 18086952,
      "componentType": 5126,
      "count": 65534,
      "max": [
        0.9999911189079285,
        0.9999958276748657,
        0.9999997019767761
      ],
      "min": [
        -0.999991774559021,
        -0.9999896287918091,
        -0.9999999403953552
      ],
      "type": "VEC3"
    },
    {
      "bufferView": 1,
      "byteOffset": 5766848,
      "componentType": 5126,
      "count": 65534,
      "max": [
        0.9998019933700562,
        0.8443599939346313
      ],
      "min": [
        0.00012199999764561653,
        0.027375999838113785
      ],
      "type": "VEC2"
    },
    {
      "bufferView": 0,
      "byteOffset": 10167360,
      "componentType": 5125,
      "count": 155616,
      "type": "SCALAR"
    },
    {
      "bufferView": 2,
      "byteOffset": 18873360,
      "componentType": 5126,
      "count": 65532,
      "max": [
        16.175048828125,
        15.726937294006348,
        15.331550598144531
      ],
      "min": [
        -17.936933517456055,
        -16.795490264892578,
        0.7004809379577637
      ],
      "type": "VEC3"
    },
    {
      "bufferView": 2,
      "byteOffset": 19659744,
      "componentType": 5126,
      "count": 65532,
      "max": [
        0.9999995231628418,
        0.9999770522117615,
        0.9999999403953552
      ],
      "min": [
        -0.9999977350234985,
        -0.9999858140945435,
        -1.0
      ],
      "type": "VEC3"
    },
    {
      "bufferView": 1,
      "byteOffset": 6291120,
      "componentType": 5126,
      "count": 65532,
      "max": [
        0.9997100234031677,
        0.8443599939346313
      ],
      "min": [
        0.00012199999764561653,
        0.00029799999902024865
      ],
      "type": "VEC2"
    },
    {
      "bufferView": 0,
      "byteOffset": 10789824,
      "componentType": 5125,
      "count": 141678,
      "type": "SCALAR"
    },
    {
      "bufferView": 2,
      "byteOffset": 20446128,
      "componentType": 5126,
      "count": 65533,
      "max": [
        15.390576362609863,
        15.975098609924316,
        18.844562530517578
      ],
      "min": [
        -24.19135093688965,
        -16.837602615356445,
        0.7005400657653809
      ],
      "type": "VEC3"
    },
    {
      "bufferView": 2,
      "byteOffset": 21232524,
      "componentType": 5126,
      "count": 65533,
      "max": [
        0.9999780058860779,
        0.9999867081642151,
        1.0
      ],
      "min": [
        -0.9999983310699463,
        -0.999997079372406,
        -0.9999999403953552
      ],
      "type": "VEC3"
    },
    {
      "bufferView": 1,
      "byteOffset": 6815376,
      "componentType": 5126,
      "count": 65533,
      "max": [
        0.999813973903656,
        0.8443599939346313
      ],
      "min": [
        0.00012199999764561653,
        0.00036700000055134296
      ],
      "type": "VEC2"
    },
    {
      "bufferView": 0,
      "byteOffset": 11356536,
      "componentType": 5125,
      "count": 130182,
      "type": "SCALAR"
    },
    {
      "bufferView": 2,
      "byteOffset": 22018920,
      "componentType": 5126,
      "count": 18381,
      "max": [
        14.303361892700195,
        15.735100746154785,
        15.82682991027832
      ],
      "min": [
        -14.8775634765625,
        -16.60936737060547,
        1.2422804832458496
      ],
      "type": "VEC3"
    },
    {
      "bufferView": 2,
      "byteOffset": 22239492,
      "componentType": 5126,
      "count": 18381,
      "max": [
        0.9999721050262451,
        0.9999791979789734,
        1.0
      ],
      "min": [
        -0.9999765157699585,
        -0.9998547434806824,
        -0.9999999403953552
      ],
      "type": "VEC3"
    },
    {
      "bufferView": 1,
      "byteOffset": 7339640,
      "componentType": 5126,
      "count": 18381,
      "max": [
        0.9997010231018066,
        0.8441159725189209
      ],
      "min": [
        0.00012199999764561653,
        0.003863000078126788
      ],
      "type": "VEC2"
    },
    {
      "bufferView": 0,
      "byteOffset": 11877264,
      "componentType": 5125,
      "count": 30684,
      "type": "SCALAR"
    }
  ],
  "asset": {
    "extras": {
      "author": "The Hallwyl Museum (Hallwylska museet) (https://sketchfab.com/TheHallwylMuseum)",
      "license": "CC-BY-4.0 (http://creativecommons.org/licenses/by/4.0/)",
      "source": "https://sketchfab.com/3d-models/the-armoury-adbe88dcf04d4a87a4c2f62ed6ca0880",
      "title": "The Armoury"
    },
    "generator": "Sketchfab-12.65.0",
    "version": "2.0"
  },
  "bufferViews": [
    {
      "buffer": 0,
      "byteLength": 12000000,
      "name": "floatBufferViews",
      "target": 34963
    },
    {
      "buffer": 0,
      "byteLength": 7486688,
      "byteOffset": 12000000,
      "byteStride": 8,
      "name": "floatBufferViews",
      "target": 34962
    },
    {
      "buffer": 0,
      "byteLength": 22460064,
      "byteOffset": 19486688,
      "byteStride": 12,
      "name": "floatBufferViews",
      "target": 34962
    }
  ],
  "buffers": [
    {
      "byteLength": 41946752,
      "uri": "scene.bin"
    }
  ],
  "extensionsUsed": [
    "KHR_materials_unlit"
  ],
  "images": [
    {
      "uri": "textures/model_Material_u1_v1_baseColor.jpeg"
    }
  ],
  "materials": [
    {
      "extensions": {
        "KHR_materials_unlit": {}
      },
      "name": "model_Material_u1_v1",
      "pbrMetallicRoughness": {
        "baseColorTexture": {
          "index": 0
        },
        "metallicFactor": 0.0
      }
    }
  ],
  "meshes": [
    {
      "name": "Object_0",
      "primitives": [
        {
          "attributes": {
            "NORMAL": 1,
            "POSITION": 0,
            "TEXCOORD_0": 2
          },
          "indices": 3,
          "material": 0,
          "mode": 4
        }
      ]
    },
    {
      "name": "Object_1",
      "primitives": [
        {
          "attributes": {
            "NORMAL": 5,
            "POSITION": 4,
            "TEXCOORD_0": 6
          },
          "indices": 7,
          "material": 0,
          "mode": 4
        }
      ]
    },
    {
      "name": "Object_2",
      "primitives": [
        {
          "attributes": {
            "NORMAL": 9,
            "POSITION": 8,
            "TEXCOORD_0": 10
          },
          "indices": 11,
          "material": 0,
          "mode": 4
        }
      ]
    },
    {
      "name": "Object_3",
      "primitives": [
        {
          "attributes": {
            "NORMAL": 13,
            "POSITION": 12,
            "TEXCOORD_0": 14
          },
          "indices": 15,
          "material": 0,
          "mode": 4
        }
      ]
    },
    {
      "name": "Object_4",
      "primitives": [
        {
          "attributes": {
            "NORMAL": 17,
            "POSITION": 16,
            "TEXCOORD_0": 18
          },
          "indices": 19,
          "material": 0,
          "mode": 4
        }
      ]
    },
    {
      "name": "Object_5",
      "primitives": [
        {
          "attributes": {
            "NORMAL": 21,
            "POSITION": 20,
            "TEXCOORD_0": 22
          },
          "indices": 23,
          "material": 0,
          "mode": 4
        }
      ]
    },
    {
      "name": "Object_6",
      "primitives": [
        {
          "attributes": {
            "NORMAL": 25,
            "POSITION": 24,
            "TEXCOORD_0": 26
          },
          "indices": 27,
          "material": 0,
          "mode": 4
        }
      ]
    },
    {
      "name": "Object_7",
      "primitives": [
        {
          "attributes": {
            "NORMAL": 29,
            "POSITION": 28,
            "TEXCOORD_0": 30
          },
          "indices": 31,
          "material": 0,
          "mode": 4
        }
      ]
    },
    {
      "name": "Object_8",
      "primitives": [
        {
          "attributes": {
            "NORMAL": 33,
            "POSITION": 32,
            "TEXCOORD_0": 34
          },
          "indices": 35,
          "material": 0,
          "mode": 4
        }
      ]
    },
    {
      "name": "Object_9",
      "primitives": [
        {
          "attributes": {
            "NORMAL": 37,
            "POSITION": 36,
            "TEXCOORD_0": 38
          },
          "indices": 39,
          "material": 0,
          "mode": 4
        }
      ]
    },
    {
      "name": "Object_10",
      "primitives": [
        {
          "attributes": {
            "NORMAL": 41,
            "POSITION": 40,
            "TEXCOORD_0": 42
          },
          "indices": 43,
          "material": 0,
          "mode": 4
        }
      ]
    },
    {
      "name": "Object_11",
      "primitives": [
        {
          "attributes": {
            "NORMAL": 45,
            "POSITION": 44,
            "TEXCOORD_0": 46
          },
          "indices": 47,
          "material": 0,
          "mode": 4
        }
      ]
    },
    {
      "name": "Object_12",
      "primitives": [
        {
          "attributes": {
            "NORMAL": 49,
            "POSITION": 48,
            "TEXCOORD_0": 50
          },
          "indices": 51,
          "material": 0,
          "mode": 4
        }
      ]
    },
    {
      "name": "Object_13",
      "primitives": [
        {
          "attributes": {
            "NORMAL": 53,
            "POSITION": 52,
            "TEXCOORD_0": 54
          },
          "indices": 55,
          "material": 0,
          "mode": 4
        }
      ]
    },
    {
      "name": "Object_14",
      "primitives": [
        {
          "attributes": {
            "NORMAL": 57,
            "POSITION": 56,
            "TEXCOORD_0": 58
          },
          "indices": 59,
          "material": 0,
          "mode": 4
        }
      ]
    }
  ],
  "nodes": [
    {
      "children": [
        1
      ],
      "matrix": [
        0.09981190413236618,
        0.0,
        0.0,
        0.0,
        0.0,
        2.2162694819886348e-17,
        -0.09981190413236618,
        0.0,
        0.0,
        0.09981190413236618,
        2.2162694819886348e-17,
        0.0,
        0.0,
        0.0,
        0.0,
        1.0
      ],
      "name": "Sketchfab_model"
    },
    {
      "children": [
        2,
        3,
        4,
        5,
        6,
        7,
        8,
        9,
        10,
        11,
        12,
        13,
        14,
        15,
        16
      ],
      "name": "model.obj.cleaner.materialmerger.gles"
    },
    {
      "mesh": 0,
      "name": "Object_2"
    },
    {
      "mesh": 1,
      "name": "Object_3"
    },
    {
      "mesh": 2,
      "name": "Object_4"
    },
    {
      "mesh": 3,
      "name": "Object_5"
    },
    {
      "mesh": 4,
      "name": "Object_6"
    },
    {
      "mesh": 5,
      "name": "Object_7"
    },
    {
      "mesh": 6,
      "name": "Object_8"
    },
    {
      "mesh": 7,
      "name": "Object_9"
    },
    {
      "mesh": 8,
      "name": "Object_10"
    },
    {
      "mesh": 9,
      "name": "Object_11"
    },
    {
      "mesh": 10,
      "name": "Object_12"
    },
    {
      "mesh": 11,
      "name": "Object_13"
    },
    {
      "mesh": 12,
      "name": "Object_14"
    },
    {
      "mesh": 13,
      "name": "Object_15"
    },
    {
      "mesh": 14,
      "name": "Object_16"
    }
  ],
  "samplers": [
    {
      "magFilter": 9729,
      "minFilter": 9987,
      "wrapS": 10497,
      "wrapT": 10497
    }
  ],
  "scene": 0,
  "scenes": [
    {
      "name": "Sketchfab_Scene",
      "nodes": [
        0
      ]
    }
  ],
  "textures": [
    {
      "sampler": 0,
      "source": 0
    }
  ]
}
