{
  "accessors": [
    {
      "bufferView": 2,
      "componentType": 5126,
      "count": 2562,
      "max": [
        20.04090118408203,
        19.104936599731445,
        1.0000120401382446
      ],
      "min": [
        -19.503068923950195,
        -20.114227294921875,
        -1.0
      ],
      "type": "VEC3"
    },
    {
      "bufferView": 2,
      "byteOffset": 30744,
      "componentType": 5126,
      "count": 2562,
      "max": [
        0.9999386668205261,
        0.9999386668205261,
        1.0
      ],
      "min": [
        -0.9999386668205261,
        -0.9999386668205261,
        -1.0
      ],
      "type": "VEC3"
    },
    {
      "bufferView": 3,
      "componentType": 5126,
      "count": 2562,
      "max": [
        0.9998173117637634,
        0.9998173117637634,
        0.9999998807907104,
        1.0
      ],
      "min": [
        -0.9998173117637634,
        -0.9998173117637634,
        -0.9999976754188538,
        1.0
      ],
      "type": "VEC4"
    },
    {
      "bufferView": 1,
      "componentType": 5126,
      "count": 2562,
      "max": [
        0.9915909767150879,
        0.9930800199508667
      ],
      "min": [
        0.003493000054731965,
        0.010319000110030174
      ],
      "type": "VEC2"
    },
    {
      "bufferView": 0,
      "componentType": 5125,
      "count": 10128,
      "type": "SCALAR"
    },
    {
      "bufferView": 2,
      "byteOffset": 61488,
      "componentType": 5126,
      "count": 2562,
      "max": [
        20.04090118408203,
        19.104938507080078,
        1.0000109672546387
      ],
      "min": [
        -19.503068923950195,
        -20.114229202270508,
        -1.0
      ],
      "type": "VEC3"
    },
    {
      "bufferView": 2,
      "byteOffset": 92232,
      "componentType": 5126,
      "count": 2562,
      "max": [
        0.9999386668205261,
        0.9999386668205261,
        1.0
      ],
      "min": [
        -0.9999386668205261,
        -0.9999386668205261,
        -1.0
      ],
      "type": "VEC3"
    },
    {
      "bufferView": 3,
      "byteOffset": 40992,
      "componentType": 5126,
      "count": 2562,
      "max": [
        0.9998173117637634,
        0.9998173117637634,
        0.9999998807907104,
        1.0
      ],
      "min": [
        -0.9998173117637634,
        -0.9998173117637634,
        -0.9999976754188538,
        1.0
      ],
      "type": "VEC4"
    },
    {
      "bufferView": 1,
      "byteOffset": 20496,
      "componentType": 5126,
      "count": 2562,
      "max": [
        0.9915909767150879,
        0.9930800199508667
      ],
      "min": [
        0.003493000054731965,
        0.010319000110030174
      ],
      "type": "VEC2"
    },
    {
      "bufferView": 0,
      "byteOffset": 40512,
      "componentType": 5125,
      "count": 10128,
      "type": "SCALAR"
    }
  ],
  "asset": {
    "extras": {
      "author": "AdityaEP (https://sketchfab.com/Adityaep93)",
      "license": "CC-BY-4.0 (http://creativecommons.org/licenses/by/4.0/)",
      "source": "https://sketchfab.com/3d-models/shuriken-ara-ara-4c0d4de13ea0460cbfc099bc1263fbef",
      "title": "Shuriken Ara-Ara"
    },
    "generator": "Sketchfab-15.47.0",
    "version": "2.0"
  },
  "bufferViews": [
    {
      "buffer": 0,
      "byteLength": 81024,
      "name": "floatBufferViews",
      "target": 34963
    },
    {
      "buffer": 0,
      "byteLength": 40992,
      "byteOffset": 81024,
      "byteStride": 8,
      "name": "floatBufferViews",
      "target": 34962
    },
    {
      "buffer": 0,
      "byteLength": 122976,
      "byteOffset": 122016,
      "byteStride": 12,
      "name": "floatBufferViews",
      "target": 34962
    },
    {
      "buffer": 0,
      "byteLength": 81984,
      "byteOffset": 244992,
      "byteStride": 16,
      "name": "floatBufferViews",
      "target": 34962
    }
  ],
  "buffers": [
    {
      "byteLength": 326976,
      "uri": "scene.bin"
    }
  ],
  "images": [
    {
      "uri": "textures/DefaultMaterial_baseColor.png"
    },
    {
      "uri": "textures/DefaultMaterial_metallicRoughness.png"
    },
    {
      "uri": "textures/DefaultMaterial_emissive.jpeg"
    },
    {
      "uri": "textures/DefaultMaterial_normal.png"
    }
  ],
  "materials": [
    {
      "alphaMode": "BLEND",
      "doubleSided": true,
      "emissiveFactor": [
        1.0,
        1.0,
        1.0
      ],
      "emissiveTexture": {
        "index": 2
      },
      "name": "DefaultMaterial",
      "normalTexture": {
        "index": 3
      },
      "occlusionTexture": {
        "index": 1
      },
      "pbrMetallicRoughness": {
        "baseColorTexture": {
          "index": 0
        },
        "metallicRoughnessTexture": {
          "index": 1
        }
      }
    }
  ],
  "meshes": [
    {
      "name": "defaultMaterial",
      "primitives": [
        {
          "attributes": {
            "NORMAL": 1,
            "POSITION": 0,
            "TANGENT": 2,
            "TEXCOORD_0": 3
          },
          "indices": 4,
          "material": 0,
          "mode": 4
        }
      ]
    },
    {
      "name": "defaultMaterial",
      "primitives": [
        {
          "attributes": {
            "NORMAL": 6,
            "POSITION": 5,
            "TANGENT": 7,
            "TEXCOORD_0": 8
          },
          "indices": 9,
          "material": 0,
          "mode": 4
        }
      ]
    }
  ],
  "nodes": [
    {
      "children": [
        1
      ],
      "matrix": [
        0.002810839330777526,
        0.0,
        0.0,
        0.0,
        0.0,
        6.241317087102351e-19,
        -0.002810839330777526,
        0.0,
        0.0,
        0.002810839330777526,
        6.241317087102351e-19,
        0.0,
        0.0,
        0.0,
        0.0,
        1.0
      ],
      "name": "Sketchfab_model"
    },
    {
      "children": [
        2,
        4
      ],
      "matrix": [
        1.0,
        0.0,
        0.0,
        0.0,
        0.0,
        -4.371139006309477e-08,
        0.999999999999999,
        0.0,
        0.0,
        -0.999999999999999,
        -4.371139006309477e-08,
        0.0,
        0.0,
        0.0,
        0.0,
        1.0
      ],
      "name": "Collada visual scene group"
    },
    {
      "children": [
        3
      ],
      "matrix": [
        0.0,
        -1.0,
        0.0,
        0.0,
        1.0,
        0.0,
        0.0,
        0.0,
        0.0,
        0.0,
        1.0,
        0.0,
        50.262329,
        24.021561,
        10.675903,
        1.0
      ],
      "name": "ShurikenAraara"
    },
    {
      "mesh": 0,
      "name": "defaultMaterial"
    },
    {
      "children": [
        5
      ],
      "matrix": [
        0.0,
        -1.0,
        0.0,
        0.0,
        1.0,
        0.0,
        0.0,
        0.0,
        0.0,
        0.0,
        1.0,
        0.0,
        36.356262,
        24.021561,
        0.0,
        1.0
      ],
      "name": "ShurikenAraara"
    },
    {
      "mesh": 1,
      "name": "defaultMaterial"
    }
  ],
  "samplers": [
    {
      "magFilter": 9729,
      "minFilter": 9987,
      "wrapS": 10497,
      "wrapT": 10497
    }
  ],
  "scene": 0,
  "scenes": [
    {
      "name": "Sketchfab_Scene",
      "nodes": [
        0
      ]
    }
  ],
  "textures": [
    {
      "sampler": 0,
      "source": 0
    },
    {
      "sampler": 0,
      "source": 1
    },
    {
      "sampler": 0,
      "source": 2
    },
    {
      "sampler": 0,
      "source": 3
    }
  ]
}
