{
  "accessors": [
    {
      "bufferView": 2,
      "componentType": 5126,
      "count": 19246,
      "max": [
        0.2207999974489212,
        0.17000000178813934,
        1.3440200090408325
      ],
      "min": [
        -0.03706999868154526,
        -0.07479999959468842,
        0.8323400020599365
      ],
      "type": "VEC3"
    },
    {
      "bufferView": 2,
      "byteOffset": 230952,
      "componentType": 5126,
      "count": 19246,
      "max": [
        0.9998887777328491,
        0.9993167519569397,
        0.9996317625045776
      ],
      "min": [
        -0.9998622536659241,
        -0.9999397993087769,
        -0.9998216032981873
      ],
      "type": "VEC3"
    },
    {
      "bufferView": 1,
      "componentType": 5126,
      "count": 19246,
      "max": [
        0.9908769726753235,
        0.9978799819946289
      ],
      "min": [
        0.0021009999327361584,
        0.3423300087451935
      ],
      "type": "VEC2"
    },
    {
      "bufferView": 0,
      "componentType": 5125,
      "count": 105498,
      "type": "SCALAR"
    }
  ],
  "asset": {
    "extras": {
      "author": "AnDeNan (https://sketchfab.com/saladeen)",
      "license": "CC-BY-NC-SA-4.0 (http://creativecommons.org/licenses/by-nc-sa/4.0/)",
      "source": "https://sketchfab.com/3d-models/portrait-de-femme-buste-5bf1d874993245dea364ee2338a6a9b9",
      "title": "Portrait de femme - Buste"
    },
    "generator": "Sketchfab-15.46.0",
    "version": "2.0"
  },
  "bufferViews": [
    {
      "buffer": 0,
      "byteLength": 421992,
      "name": "floatBufferViews",
      "target": 34963
    },
    {
      "buffer": 0,
      "byteLength": 153968,
      "byteOffset": 421992,
      "byteStride": 8,
      "name": "floatBufferViews",
      "target": 34962
    },
    {
      "buffer": 0,
      "byteLength": 461904,
      "byteOffset": 575960,
      "byteStride": 12,
      "name": "floatBufferViews",
      "target": 34962
    }
  ],
  "buffers": [
    {
      "byteLength": 1037864,
      "uri": "scene.bin"
    }
  ],
  "extensionsUsed": [
    "KHR_materials_unlit"
  ],
  "images": [
    {
      "uri": "textures/main_baseColor.jpeg"
    }
  ],
  "materials": [
    {
      "doubleSided": true,
      "extensions": {
        "KHR_materials_unlit": {}
      },
      "name": "main",
      "pbrMetallicRoughness": {
        "baseColorTexture": {
          "index": 0
        },
        "metallicFactor": 0.0
      }
    }
  ],
  "meshes": [
    {
      "name": "Object_0",
      "primitives": [
        {
          "attributes": {
            "NORMAL": 1,
            "POSITION": 0,
            "TEXCOORD_0": 2
          },
          "indices": 3,
          "material": 0,
          "mode": 4
        }
      ]
    }
  ],
  "nodes": [
    {
      "children": [
        1
      ],
      "matrix": [
        1.0,
        0.0,
        0.0,
        0.0,
        0.0,
        2.220446049250313e-16,
        -1.0,
        0.0,
        0.0,
        1.0,
        2.220446049250313e-16,
        0.0,
        0.0,
        0.0,
        0.0,
        1.0
      ],
      "name": "Sketchfab_model"
    },
    {
      "children": [
        2
      ],
      "name": "Scaniverse.obj.cleaner.materialmerger.gles"
    },
    {
      "mesh": 0,
      "name": "Object_2"
    }
  ],
  "samplers": [
    {
      "magFilter": 9729,
      "minFilter": 9987,
      "wrapS": 10497,
      "wrapT": 10497
    }
  ],
  "scene": 0,
  "scenes": [
    {
      "name": "Sketchfab_Scene",
      "nodes": [
        0
      ]
    }
  ],
  "textures": [
    {
      "sampler": 0,
      "source": 0
    }
  ]
}
